<svg class="svg-icon" style="width: 1em;height: 1em;vertical-align: middle;fill: #ff5200;overflow: hidden;" viewBox="0 0 1024 1024" version="1.1" xmlns="http://www.w3.org/2000/svg"><path d="M921.6 375.47008c0-113.07008-91.66848-204.8-204.8-204.8a204.21632 204.21632 0 0 0-144.83456 59.99616l-59.99616 59.99616-59.96544-59.99616A204.15488 204.15488 0 0 0 307.2 170.67008c-113.07008 0-204.8 91.66848-204.8 204.8a204.11392 204.11392 0 0 0 59.99616 144.7936L463.72864 833.4336c26.54208 26.54208 70.00064 26.54208 96.57344 0l43.13088-44.83072 51.06688 53.07392a39.91552 39.91552 0 0 0 56.3712 0l175.72864-182.71232C908.26752 637.42976 921.6 607.52896 921.6 574.52544s-13.40416-62.86336-35.072-84.49024A203.65312 203.65312 0 0 0 921.6 375.47008z m-83.12832 235.08992L682.67008 772.49536 527.93344 611.65568C517.33504 601.05728 512 588.22656 512 574.52544a51.2512 51.2512 0 0 1 51.2-51.16928c13.62944 0 26.53184 5.36576 36.22912 15.04256l83.27168 83.12832 83.23072-83.23072a50.60608 50.60608 0 0 1 35.97312-14.94016c28.4672 0 51.42528 22.96832 51.42528 51.16928a50.3808 50.3808 0 0 1-14.85824 36.03456z m-13.16864-153.12896a118.86592 118.86592 0 0 0-107.63264 32.60416l-35.00032 34.99008-35.00032-34.92864A119.2448 119.2448 0 0 0 563.2 455.09632c-65.92512 0-119.47008 53.504-119.47008 119.42912 0 33.03424 13.40416 62.90432 35.00032 84.46976l77.34272 80.40448L512 785.2032 211.59936 472.9344c-26.7264-26.73664-40.92928-60.99968-40.92928-97.47456 0-75.264 61.25568-136.52992 136.52992-136.52992 36.47488 0 70.72768 14.20288 96.53248 39.99744l108.2368 108.26752L620.22656 278.9376a135.5776 135.5776 0 0 1 96.50176-39.99744c75.33568 0 136.6016 61.26592 136.6016 136.52992 0 30.09536-10.12736 58.39872-28.02688 81.96096z"  /></svg>