<svg class="svg-icon" style="width: 1em; height: 1em;vertical-align: middle;fill: #4a9fff;overflow: hidden;" viewBox="0 0 1024 1024" version="1.1" xmlns="http://www.w3.org/2000/svg"><path d="M341.333333 981.333333c-76.8 0-153.6-29.866667-213.333333-85.333333-115.2-115.2-115.2-307.2 0-422.4l392.533333-392.533333C558.933333 42.666667 614.4 17.066667 669.866667 17.066667c55.466667 0 110.933333 21.333333 149.333333 64 85.333333 85.333333 85.333333 217.6 0 302.933333L426.666667 776.533333c-51.2 51.2-132.266667 51.2-179.2 0-21.333333-25.6-34.133333-59.733333-34.133334-93.866666s12.8-68.266667 38.4-89.6l362.666667-362.666667c17.066667-17.066667 42.666667-17.066667 59.733333 0 17.066667 17.066667 17.066667 42.666667 0 59.733333l-362.666666 362.666667c-8.533333 8.533333-12.8 17.066667-12.8 29.866667s4.266667 21.333333 12.8 29.866666c17.066667 17.066667 42.666667 17.066667 59.733333 0l392.533333-392.533333c51.2-51.2 51.2-132.266667 0-179.2-46.933333-46.933333-132.266667-46.933333-179.2 0l-392.533333 392.533333c-85.333333 85.333333-85.333333 217.6 0 302.933334s217.6 85.333333 302.933333 0l392.533334-392.533334c17.066667-17.066667 42.666667-17.066667 59.733333 0s17.066667 42.666667 0 59.733334L554.666667 891.733333C494.933333 951.466667 418.133333 981.333333 341.333333 981.333333z"  /></svg>